<mxfile host="app.diagrams.net" modified="2023-05-05T09:19:48.859Z" agent="Mozilla/5.0 (Macintosh; Intel Mac OS X 10_15_7) AppleWebKit/537.36 (KHTML, like Gecko) Chrome/112.0.0.0 Safari/537.36" version="21.1.4" etag="6-7SYD37fl2M5D8hQDKe" type="github">
  <diagram name="Page-1" id="F6Z7-9UB9Iwa8qR5foMA">
    <mxGraphModel>
      <root>
        <mxCell id="0" />
        <mxCell id="1" parent="0" />
      </root>
    </mxGraphModel>
  </diagram>
</mxfile>
